<?xml version="1.0" encoding="UTF-8"?>
<svg id="Layer_1" data-name="Layer 1" xmlns="http://www.w3.org/2000/svg" viewBox="0 0 186.65 164.33">
  <defs>
    <style>
      .cls-1 {
        font-size: 14.39px;
      }

      .cls-1, .cls-2 {
        font-family: Gotham-Ultra, Gotham;
      }

      .cls-1, .cls-2, .cls-3 {
        fill: #fff;
      }

      .cls-2 {
        font-size: 14.39px;
      }

      .cls-4 {
        fill: none;
        stroke-width: .47px;
      }

      .cls-4, .cls-5 {
        stroke: #fff;
        stroke-miterlimit: 10;
      }

      .cls-5 {
        fill: #ff4e00;
        stroke-width: .93px;
      }
    </style>
  </defs>
  <circle class="cls-5" cx="93.32" cy="82.16" r="51.66"/>
  <circle class="cls-4" cx="93.32" cy="82.16" r="47.76"/>
  <circle class="cls-4" cx="93.32" cy="82.16" r="30.94"/>
  <path class="cls-3" d="M108.82,86.71c0,6.57-8.89,12.16-23.74,12.16h-9.01l6.16-31.56h19.79c5.58,0,8.57,1.15,8.57,4.61,0,4.15-6.66,8.71-17.13,10.6l5.71-9.46-8.73-.02-3.8,11.65,6.02-.84-7.65,12.68,18.04-14.92c3.52,0,5.78,2.03,5.78,5.1h0Z"/>
  <text class="cls-2" transform="translate(65.62 62.22) rotate(-45.38)"><tspan x="0" y="0">F</tspan></text>
  <text class="cls-2" transform="translate(71.69 55.87) rotate(-29.89)"><tspan x="0" y="0">R</tspan></text>
  <text class="cls-2" transform="translate(80.23 50.96) rotate(-14.32)"><tspan x="0" y="0">E</tspan></text>
  <text class="cls-2" transform="translate(89.05 48.64) rotate(.87)"><tspan x="0" y="0">E</tspan></text>
  <text class="cls-2" transform="translate(98.3 49.01) rotate(11.94)"><tspan x="0" y="0"> </tspan></text>
  <text class="cls-2" transform="translate(102.31 49.53) rotate(23.41)"><tspan x="0" y="0">B</tspan></text>
  <text class="cls-2" transform="translate(111.27 53.38) rotate(38.99)"><tspan x="0" y="0">E</tspan></text>
  <text class="cls-2" transform="translate(118.4 59.07) rotate(54.27)"><tspan x="0" y="0">T</tspan></text>
  <text class="cls-1" transform="translate(80.01 124.05) rotate(13.67)"><tspan x="0" y="0">1</tspan></text>
  <text class="cls-1" transform="translate(87.43 125.92) rotate(.77)"><tspan x="0" y="0">0</tspan></text>
  <text class="cls-1" transform="translate(99.73 125.77) rotate(-14.33)"><tspan x="0" y="0">€</tspan></text>
</svg>