<?xml version="1.0" encoding="UTF-8"?>
<svg id="Layer_1" data-name="Layer 1" xmlns="http://www.w3.org/2000/svg" viewBox="0 0 257.19 70.78">
  <defs>
    <style>
      .cls-1 {
        font-family: Nexa-Black-Italic, Nexa-Black-Italic;
        font-size: 8.03px;
        font-style: italic;
        font-weight: 800;
      }

      .cls-1, .cls-2 {
        fill: #999;
      }

      .cls-3 {
        fill: #fff;
      }

      .cls-4 {
        letter-spacing: -.07em;
      }

      .cls-5 {
        letter-spacing: -.11em;
      }

      .cls-6 {
        letter-spacing: -.05em;
      }

      .cls-7 {
        letter-spacing: -.03em;
      }
    </style>
  </defs>
  <g>
    <text class="cls-1" transform="translate(66.65 64.74)"><tspan class="cls-7" x="0" y="0">P</tspan><tspan class="cls-6" x="5.47" y="0">O</tspan><tspan class="cls-7" x="11.85" y="0">WERED </tspan><tspan class="cls-4" x="43.69" y="0">B</tspan><tspan class="cls-5" x="49.08" y="0">Y</tspan><tspan class="cls-7" x="54.04" y="0">:</tspan></text>
    <g id="g835">
      <g id="path833">
        <path class="cls-2" d="M151.28,54.9c-3.32,0-5.72,2.75-5.72,5.73,0,2.58,1.8,4.1,4.19,4.1s3.87-1.48,4.34-3.29c-.64.46-1.74.98-2.99.98-1.06,0-2.34-.45-2.46-1.85,2.67-.35,4.85-1.2,6.03-2.09.02-.15.04-.36.04-.64,0-1.5-.95-2.93-3.42-2.93h0ZM151.67,58.69h-2.91c.26-1.34,1.21-2.32,2.14-2.32.63,0,.93.33.93,1.15,0,.37-.06.76-.17,1.17ZM185.54,54.9c-3.41,0-5.84,2.63-5.84,6.01,0,2.47,1.94,3.82,4.34,3.82,3.41,0,5.84-2.63,5.84-6.01,0-2.47-1.94-3.82-4.34-3.82ZM184.16,63.23c-.78,0-1.21-.63-1.21-1.82,0-2.36.95-5.01,2.48-5.01.78,0,1.21.63,1.21,1.82,0,2.36-.97,5.01-2.48,5.01ZM179.57,57.29c0,.3-.03.63-.1.98l-1.22,6.27h-3.04l1.08-5.53c.06-.28.08-.52.08-.74,0-.87-.47-1.26-1.3-1.26-.34,0-.75.11-1.02.22l-1.43,7.31h-3.04l1.85-9.46h3.04l-.34,1.71c.49-.79,1.59-1.89,3.02-1.89,1.32,0,2.42.8,2.42,2.39h0ZM169.84,57.91c0-1.71-1.49-3.01-3.59-3.01-2.6,0-3.96,1.7-4.36,3.29.82-.59,1.98-.98,2.99-.98.94,0,1.87.3,1.87,1.24,0,.09,0,.2-.02.35-2.4.1-5.85,1.37-5.85,4.01,0,1.09.8,1.91,2.03,1.91s2.37-.83,3.05-1.89l-.33,1.71h3.04l1.11-5.69c.06-.33.08-.65.08-.95h0ZM166.04,62.4c-.37.17-.85.28-1.21.28-.76,0-1.14-.42-1.14-.98,0-1.18,1.4-1.92,2.75-1.37l-.4,2.07h0ZM159.2,62.42c.4,0,.8-.11,1.31-.5-.47,1.59-1.78,2.82-3.19,2.82-1.73,0-2.27-1.45-1.91-3.29l.92-4.68h-1.24l.33-1.67h1.25l.34-1.78,3.13-.44-.44,2.22h2.61c-.2.97-.8,1.67-2.05,1.67h-.88l-.9,4.58c-.14.7.24,1.07.73,1.07h0ZM145.07,59.85c0,2.54-3.44,4.7-9.18,4.7h-3.49l2.38-12.2h7.65c2.16,0,3.31.44,3.31,1.78,0,1.6-2.57,3.37-6.62,4.1l2.21-3.66h-3.38s-1.47,4.5-1.47,4.5l2.33-.33-2.96,4.9,6.97-5.77c1.36,0,2.23.79,2.23,1.97h0Z"/>
      </g>
    </g>
  </g>
  <g>
    <path class="cls-3" d="M243.57,6.59H12.96c-2.09,0-3.8,1.7-3.8,3.8v34.37c0,2.09,1.7,3.8,3.8,3.8h230.61c2.09,0,3.8-1.7,3.8-3.8V10.39c0-2.09-1.7-3.8-3.8-3.8ZM30.22,16.96l-1.24-.75,5.81.12,3.37-.05s1.55-.26,1.72-.24c.17.01.35.1.41.1s1.81-.31,2.59-.01c0,0,1.11-.26,1.18-.26.07,0,1,.15,1.04.17.04.02.61.9.65.96,0,0,.41-.05,1.51,0,0,0,.5-.35.82-.23.26.09.33.2.33.2,0,0,.63-.01.83.16,0,0,.58-.09.67-.11.09-.02.23-.02.43.09.21.11.73.43.76.49.03.06.06.56.05.59,0,.03-.09.07-.09.09s.01.1.18.24.68.63.68,1.06l-.02.65s1.09.51,1.21.6c.13.09.32.31.32.35,0,.03-.04.53-.05.55,0,.02-.78,2.18-.94,2.23,0,0-.2.03-.42-.14s-.66-.6-.83-.58-1.19.33-1.27.32-.41-.52-.58-.58c-.17-.06-.64-.22-.96-.22s-1.16.43-1.16.43l-.76-.44s-1.02.34-1.28.44c-.26.1-2.42,1.41-4.15,4.35,0,0-.1.2-.24.52.72-.2,1.51-.31,2.38-.31,1.69,0,3.12.51,3.98,1.4l-1.89,2.41c-.55-.48-1.48-.74-2.58-.74-1.85,0-2.94,1.23-2.94,3.24,0,1.35.72,2.14,2.08,2.14,1.12,0,2.26-.26,3.14-.72l.6,2.69c-1.23.71-2.78,1.11-4.31,1.11-3.21,0-4.94-1.71-4.94-4.67,0-1.83.47-3.35,1.35-4.49-.55.09-1.03.17-1.3.21l-.09.5h-5.35l-.25,1.51h4.46l-.46,2.92h-4.46l-.62,3.88h-3.38s0,0,0,0l.64-3.87h3.37l.46-2.92h-3.34l.31-2.07-1.74.12,1.81-.56.27-1.75-1.21.09,3.6-1.11.78-1.86-3.32.23,3.68-1.14.32-.76-1.79.31,2.09-2.78s-.82-.41-.96-.44c-.14-.03-.95-.26-1.1-.3-.15-.04-.73-.17-1.04-.16-.31.02-.67.08-1.12.34s-.5.23-.51.21c-.01-.02.06-.2.24-.31s1.07-.75,1.33-.85c0,0-.5-.02-.58-.05-.08-.03-.16-.1-.21-.17l-4.45-.02h-.31s-.07-.01-.15-.08c-.08-.07-.3-.34-.44-.34-.14,0-.36.04-.4-.05s-.08-.16.03-.19c.12-.03,9.41-1.33,9.41-1.33l.03-.03-1.68-.34ZM24.87,27.84v.08s0,0,0,0l-.77,4.42h-3.29l-.42,2.92h3.27s-.7,3.88-.7,3.88h-7.32l1.8-11.23,7.42-.07ZM52.14,35.6h-1.77l-.57,3.54h-3.38l1.78-11.23h5.32c2.37,0,3.64,1.15,3.64,3.17,0,2.83-1.86,4.52-5.03,4.52ZM244.37,44.76c0,.44-.36.8-.8.8H62.15V9.59h181.43c.44,0,.8.36.8.8v34.37Z"/>
    <polygon class="cls-3" points="77.97 23.87 73.62 23.87 73.02 27.35 69.43 27.35 68.72 31.38 72.3 31.38 71.7 34.89 76.05 34.89 76.65 31.38 80.26 31.38 80.97 27.35 77.36 27.35 77.97 23.87"/>
    <path class="cls-3" d="M98.22,21.04c-1.08-1.06-2.66-1.59-4.73-1.59h-8.96l-3.24,18.45h5.22l.87-4.98h3.74c1.81-.02,3.39-.39,4.73-1.12,1.34-.73,2.35-1.67,3-2.83.66-1.16.99-2.45.99-3.87,0-1.63-.54-2.98-1.62-4.05ZM94.28,26.93c-.49.98-1.28,1.51-2.37,1.58h-3.74l.79-4.72h3.74c.76,0,1.3.27,1.63.82.4.68.39,1.46-.05,2.32Z"/>
    <path class="cls-3" d="M117.68,24.85c0-1.53-.53-2.81-1.59-3.85-1.06-1.04-2.59-1.55-4.57-1.55h-9.01l-3.24,18.45h5.22l1.05-5.98h2.03l3.24,5.98h5.53l.05-.32-3.69-6.22c3.32-1.02,4.98-3.19,4.98-6.51ZM112.22,26.56c-.47.91-1.19,1.41-2.16,1.48h-3.85l.79-4.43h3.79c.7.02,1.21.26,1.53.74.39.63.35,1.37-.11,2.21Z"/>
    <polygon class="cls-3" points="134.49 23.82 135.25 19.45 121.2 19.45 117.96 37.89 132.72 37.89 133.48 33.49 123.87 33.49 124.37 30.7 132.75 30.7 133.51 26.46 125.13 26.46 125.58 23.82 134.49 23.82"/>
    <path class="cls-3" d="M145.87,19.45h-7.91l-3.24,18.45h7.91c1.84,0,3.51-.31,4.99-.92,1.48-.62,2.69-1.44,3.61-2.46.92-1.03,1.63-2.19,2.12-3.49.49-1.3.74-2.66.74-4.08,0-2.23-.69-4.04-2.07-5.42-1.38-1.38-3.43-2.07-6.15-2.07ZM148.57,29.59c-.2.67-.51,1.3-.92,1.9-.41.6-.99,1.08-1.73,1.45s-1.58.55-2.53.55h-2.74l1.71-9.7h2.74c1.27,0,2.21.35,2.83,1.04.62.69.94,1.59.94,2.7,0,.7-.1,1.39-.3,2.06Z"/>
    <polygon class="cls-3" points="154.35 37.89 159.54 37.89 162.78 19.45 157.59 19.45 154.35 37.89"/>
    <path class="cls-3" d="M174.6,33.48c-.85.31-1.62.46-2.31.46-1.42,0-2.47-.41-3.14-1.22-.67-.82-1-1.81-1-2.99,0-.95.21-1.88.62-2.79.41-.91,1.09-1.71,2.03-2.39.94-.68,2.04-1.01,3.31-1.01,1.51,0,2.73.54,3.66,1.61l3.77-3.16c-1.69-1.97-3.9-2.95-6.64-2.95-1.86,0-3.57.34-5.13,1.03-1.55.68-2.82,1.58-3.79,2.69s-1.73,2.33-2.27,3.68c-.54,1.34-.8,2.71-.8,4.1,0,2.28.7,4.16,2.11,5.64,1.41,1.48,3.57,2.21,6.48,2.21s5.62-.96,7.91-2.87l-2.45-3.43c-.72.63-1.51,1.1-2.36,1.41Z"/>
    <polygon class="cls-3" points="198.06 19.45 182.09 19.45 181.33 23.74 186.7 23.74 184.2 37.89 189.39 37.89 191.89 23.74 197.3 23.74 198.06 19.45"/>
    <path class="cls-3" d="M215.21,21.11c-1.6-1.41-3.74-2.11-6.43-2.11-2.28,0-4.33.46-6.15,1.37-1.82.91-3.25,2.24-4.28,3.98s-1.54,3.75-1.5,6.03c.04,2.5.85,4.45,2.45,5.85s3.74,2.11,6.43,2.11c2.3,0,4.36-.45,6.18-1.34,1.82-.9,3.24-2.22,4.27-3.97s1.52-3.77,1.49-6.07c-.04-2.49-.85-4.44-2.45-5.85ZM210.59,32.12c-1.17,1.18-2.62,1.77-4.36,1.77-1.28,0-2.3-.4-3.04-1.2-.75-.8-1.1-1.84-1.07-3.12.02-1.74.62-3.19,1.82-4.36,1.19-1.17,2.64-1.75,4.32-1.75,1.32,0,2.35.38,3.08,1.15.74.76,1.09,1.8,1.05,3.1-.04,1.77-.64,3.25-1.81,4.43Z"/>
    <path class="cls-3" d="M236.29,24.85c0-1.53-.53-2.81-1.59-3.85-1.06-1.04-2.59-1.55-4.57-1.55h-9.01l-3.24,18.45h5.22l1.05-5.98h2.03l3.24,5.98h5.53l.05-.32-3.69-6.22c3.32-1.02,4.98-3.19,4.98-6.51ZM230.83,26.56c-.47.91-1.19,1.41-2.16,1.48h-3.85l.79-4.43h3.79c.7.02,1.21.26,1.53.74.39.63.35,1.37-.11,2.21Z"/>
    <path class="cls-3" d="M40.37,18.82c.21-.04,1.02-.11,1.57-.13h-.03c.08-.16.08-.42.08-.42,0,0,.01,0,.02,0-.05,0-.13-.03-.23-.06,0,.01.02.02.02.04,0,.17-.14.31-.32.31s-.32-.14-.32-.31c0-.09.04-.16.1-.22-.17-.06-.33-.13-.48-.19l.07.03c-.16.09-.39.39-.47.58-.07.16-.04.36-.04.36,0,0,0,0,.02,0Z"/>
    <path class="cls-3" d="M23.57,18.95l4.65.05.27.23.91.09.19-.1-.62-.37,1.32.03s1.46-.65,2.44-.85c0,0,.02-.23.06-.35l-9.46,1.11.24.16Z"/>
    <path class="cls-3" d="M34.36,17.05s.19-.48.23-.54l-4.8-.14.7.36,2.9.42s.67-.14.98-.11Z"/>
    <path class="cls-3" d="M48.27,20.12s.22.03.3.03c.08,0,.16,0,.16,0,.18-.39.05-1.33.05-1.33-.25.95-.51,1.29-.51,1.29Z"/>
    <path class="cls-3" d="M45.11,17.12s.13-.03.22-.05l.16-.03s0,0-.01-.03c0,0,0,0,0,0-.02-.05-.08-.14-.19-.28,0,0,0,0,0,0-.04-.05-.07-.1-.11-.14-.06-.08-.13-.16-.15-.18,0,0-.02-.02-.03-.03-.02-.02-.04-.04-.06-.06,0,0-.01-.01-.01-.01,0,0,0,0,0,0,0,0,0,0,0,0-.01,0-.02-.02-.03-.03,0,0-.01,0-.02-.01,0,0,0,0,0,0-.06-.05-.11-.05-.14-.05-.07,0-.15,0-.15,0h0c-.42,0-1.23.07-1.23.07,0,0,1.42.55,1.6.61s.19.25.19.25Z"/>
    <path class="cls-3" d="M33.6,17.39l-.45.61.68-.02c1.36.05,1.63.21,1.63.21.34.11.59.14.71.15-.18-.01-.66-.05-.97-.07-.17-.01-.44-.04-.69-.06-.35,0-.84.03-1.3.17-.83.27-1.4.29-3.39,1.41.25.02.53.06.8.19.55.26,1.78.8,1.78.8.51.19,1.07.05,1.07.05l1.91-.44c-.48.24-2.21.83-2.33.86-.12.03-.28.01-.28.01l-1.28,1.7,3.31-.67-1.08,2.31,2.76-1.37s.77,1.22,1.96,1.53c1.07.28,3.52-.86,4.03-1.06,0,0,1.05-.48,1.8-.93.75-.45,2.08-.77,2.36-.68.28.09.73.38.73.38,0,0,2-.72,2.98.42,0,0,1.13-.27,1.33-.14.21.13.58.56.58.56,0,0,.27-.59.34-.77s.18-.38.22-.49c.04-.11.16-.68.05-.84-.11-.16-.67-.54-1-.67-.33-.13-.55-.02-.72,0-.16.02-.88.21-1.08.32,0,0,.53-.62,1.65-.69l-.1-.57s-.17-.25-1-.05c-.48.12-.96,1.02-2.07,1.04,0,0-.49.04-1.61-.38,0,0-.72-.24-1.77.03,0,0-.88.26-1.49.47-.61.21-2.5,1.02-2.63,1.08-.33.15-1.71.52-2.12.26-.26-.16-.21-.45-.21-.45,0,0-.91.48-1.18.99,0,0,.14-.76.95-1.35.81-.59,1.14-.55,1.14-.55,0,0-.68.54-.4.86.27.33.59.23.97.15s2.69-1.05,2.69-1.05c0,0,1.44-.76,2.49-.8,1.05-.04,2.23.16,2.46.22,0,0,.61-.84.65-1.39,0,0,0-.4.06-.38.09.03.44.28.56.57.13.3.21.48.21,1.19,0,0,.81-.52,1.06-.63.32-.14.76-.18.99-.2,0,0,.13-.14.05-.28-.08-.14-.57-.59-.7-.68,0,0,.32-.09.06-.57,0,0-.19-.34-.74-.49-.32-.09-.58,0-.58,0l.86.93s-1.06-.91-1.27-.97-.4-.06-.39-.03c.01.03.85.87.9,1.06,0,0-.77-.77-1.04-.96-.27-.2-.46-.26-.61-.26s-.84.3-.84.42c0,0-.02.15.04.27.06.12.15.35.15.35,0,0-.42-.37-.4-.63,0,0,0-.11.08-.17,0,0-.49-.07-1.61-.03,0,0-.69.06-1.06.58,0,0-.12.15-.15.17,0,0,.1-.18.15-.29.05-.11.31-.37.6-.47,0,0,.23-.12-1.83-.79,0,0-.46-.15-.55-.16-.1-.02-.28-.04-.57-.03s-1.16.04-1.16.04l1.93.5s.87.19,1.17.83c0,0-.34-.46-.85-.58,0,0-2.09-.58-3.19-.57-1.1,0-2.54.5-2.54.5l1.1.29-1.67.77s.75-.63.74-.66-.98-.39-1.11-.46c-.14-.07-.16-.05-.16-.05.04-.02.06-.1.18-.17.12-.07.89-.23.89-.23l-2.3.09-.29.54,1.37.07-2.45.27ZM35.01,19.64c-.61.67-.97.67-.97.67.87-.63.98-1.13,1.01-1.3s-.15-.16-.15-.16h-.58s0,.04,0,.3-.62.79-.62.79c.01-.01.26-.47.31-.68.06-.21-.1-.37-.1-.37-.82.05-2.63.68-2.63.68.03.05.51.28.68.29.16.01.79,0,.79,0l-.41-.33s.16.02.16.02c.46.19.63.44.63.44-.23.18-.89.16-1.39.07-.5-.09-.91-.36-.95-.45-.04-.09.18-.18.18-.18,1.81-.87,3.17-.84,3.65-.88.48-.04.78.08.82.11s.16.33-.44,1ZM47.39,17.44s.03-.08.53,0c.5.08.94.53,1.02.64s.07.18.1.2c0,0-1-.68-1.23-.46,0,0-.1.07-.04.15s.02.13-.04.08c-.05-.05-.48-.36-.33-.61ZM44.43,19.25c.46-.09.73-.08,1.77,0,1.04.08,1.3.23,1.39.32,0,0-1.21-.24-2.71-.19,0,0-.6.03-2.13.8,0,0,1.22-.84,1.68-.93ZM39.58,18.75s.06,0,.26.05c.11.03.17.05.25.05-.37-.62.39-1.13.39-1.13l.06.03c-.37-.18-.6-.33-.92-.26,0,0-.71.15-1.19.4,0,0,.44-.47,1.27-.63,0,0,.31-.04.48,0,.17.04,1.1.49,1.1.49,0,0,.55.32.78.33s1.59,0,1.59,0c0,0-1.42.22-1.62.2,0,0,0,0,.01,0,0,0,.07,0,.07,0h0c0,.29-.07.4-.08.41.15,0,.28,0,.36,0,.37.03.55.1.6.22,0,0-.07-.1-.53-.13,0,0-.9,0-2.03.26,0,0-.15.04-.33,0-.18-.04-.64-.16-.94-.12-.3.04-1.06.12-1.06.12,0,0,.9-.3,1.49-.3ZM38.44,20.28c.66-.54.99-.53,1.27-.49.38.05.27.37.27.37-.71-.29-1.19.24-1.38.41-.19.16-1.28,1.36-1.28,1.36,0,0,.46-1.1,1.13-1.64Z"/>
    <path class="cls-3" d="M52.89,30.68h-1.75l-.34,2.15h1.77c.74,0,1.17-.49,1.17-1.28,0-.57-.29-.88-.85-.88Z"/>
    <path class="cls-3" d="M37.59,25.44c-.68-.31-1.19-.74-1.56-1.25l-3.52,1.59,1.17-2.83-.53.27s-1.88,3.56-1.99,3.78c-.03.06-.19.42-.42.91h6.02l-.36,2.07,1.47-.13c.57-.65,1.28-1.15,2.12-1.51.17-.4.36-.83.55-1.24-1.23.29-3.61.65-3.61.65-1.64.25-1.74-.16-1.74-.16-.26-.59,1.05-2,1.05-2-.16.14-.61,1.16-.47,1.55s.96.27.96.27l3.83-.35c.52-1.14,1.02-2.15,1.02-2.15,0,0-3.32.84-4,.54Z"/>
  </g>
</svg>